<svg width="204" height="38" viewBox="0 0 204 38" fill="none" xmlns="http://www.w3.org/2000/svg">
<path d="M4.21464 28.5044C2.68475 28.5044 1.33484 27.6945 0.524902 26.3446C-0.28504 24.9947 -0.105053 23.4648 0.704889 22.2049L8.26435 10.3257C9.0743 9.0658 10.4242 8.25586 11.9541 8.25586C13.484 8.25586 14.8339 9.1558 15.5538 10.5057C16.2738 11.8556 16.1838 13.4755 15.2839 14.7354L7.81438 26.6146C7.00444 27.7845 5.65454 28.5044 4.21464 28.5044Z" fill="#FB275D"/>
<path d="M17.175 28.5045C15.6451 28.5045 14.2952 27.6946 13.4853 26.3447C12.7653 24.9948 12.7653 23.3749 13.5753 22.115L21.1347 10.2358C21.8547 8.88592 23.2946 8.07598 24.8245 8.16597C26.3543 8.16597 27.7043 9.06591 28.4242 10.4158C29.1441 11.7657 29.0542 13.3856 28.1542 14.6455L20.5948 26.5247C19.9648 27.7846 18.6149 28.5045 17.175 28.5045Z" fill="#FFCC00"/>
<path d="M30.1329 28.5037C32.4192 28.5037 34.2726 26.6906 34.2726 24.454C34.2726 22.2174 32.4192 20.4043 30.1329 20.4043C27.8466 20.4043 25.9932 22.2174 25.9932 24.454C25.9932 26.6906 27.8466 28.5037 30.1329 28.5037Z" fill="#00CA72"/>
<path d="M200.49 22.114C201.66 22.114 202.38 22.924 202.38 24.2739V28.9535H204V24.1839C204 21.844 202.92 20.4941 200.76 20.4941C199.95 20.4941 198.6 20.6741 197.88 22.204C197.521 21.3041 196.711 20.6741 195.721 20.5841C195.451 20.4941 195.091 20.4941 194.821 20.4941C194.191 20.5841 192.931 20.9441 192.481 21.844V20.5841H190.861V28.8635H192.481V24.3639C192.481 22.654 193.651 21.934 194.821 21.934C195.901 21.934 196.621 22.744 196.621 24.0939V28.7736H198.24V24.2739C198.24 23.104 199.14 22.114 200.49 22.114ZM184.921 27.6036C185.641 27.6036 186.361 27.3337 186.901 26.7937C187.441 26.2537 187.711 25.5338 187.711 24.8138C187.711 23.1939 186.451 22.114 184.921 22.114C183.392 22.114 182.132 23.1939 182.132 24.8138C182.132 25.5338 182.402 26.2537 182.942 26.7937C183.482 27.3337 184.201 27.6036 184.921 27.6036ZM184.921 29.1335C182.582 29.1335 180.602 27.4236 180.602 24.8138C180.602 22.204 182.582 20.4941 184.921 20.4941C187.261 20.4941 189.331 22.114 189.331 24.8138C189.331 27.5136 187.261 29.1335 184.921 29.1335ZM172.232 24.8138C172.232 27.4236 174.302 29.1335 176.642 29.1335C177.902 29.1335 179.072 28.6836 179.882 27.7836L178.622 26.7937C177.812 27.6036 176.642 27.7836 175.562 27.4236C174.482 26.9737 173.852 25.9837 173.852 24.8138C173.852 23.1939 175.112 22.114 176.642 22.114C177.362 22.114 178.082 22.384 178.622 22.924L179.882 21.934C179.072 21.0341 177.902 20.5841 176.642 20.5841C174.212 20.5841 172.142 22.204 172.232 24.8138Z" fill="#333333"/>
<path fill-rule="evenodd" clip-rule="evenodd" d="M171.154 10.5953H165.395L161.345 20.7646L157.385 10.5953H151.626L158.645 26.7041L154.326 37.3234H159.995L171.154 10.5953ZM136.687 19.5946C136.687 22.2045 138.937 23.8243 141.187 23.8243C143.436 23.8243 145.596 22.2945 145.596 19.5946C145.596 16.8948 143.436 15.3649 141.187 15.3649C139.027 15.275 136.687 16.9848 136.687 19.5946ZM145.596 28.504V26.4342C144.426 28.144 141.726 28.774 140.287 28.774C135.697 28.774 131.017 25.1742 131.017 19.4147C131.017 13.6551 135.607 10.0553 140.287 10.0553C141.457 10.0553 144.156 10.4153 145.596 12.3952V10.5953H150.906V28.504H145.596ZM129.577 28.504H124.268V26.2542C123.368 27.8741 121.208 28.864 118.958 28.864C114.278 28.864 110.229 25.1742 110.229 19.5946C110.229 13.8351 114.368 10.2353 118.958 10.2353C121.208 10.2353 123.368 11.1352 124.268 12.8451V0.875977H129.577V28.504ZM124.178 19.5047C124.178 16.8048 122.198 15.275 119.948 15.275C117.698 15.275 115.718 16.9848 115.718 19.5047C115.718 22.1145 117.608 23.8243 119.948 23.8243C122.198 23.8243 124.178 22.1145 124.178 19.5047ZM96.9997 19.0547C96.9997 16.3549 98.4396 15.3649 100.329 15.3649C102.129 15.3649 103.479 16.5349 103.479 18.9647V28.504H108.879V17.7948C108.879 12.6651 106.359 10.2353 102.219 10.2353C100.059 10.2353 97.9896 11.4052 96.9997 13.2051V10.5953H91.6001V28.504H96.9997V19.0547ZM80.6208 28.864C75.4912 28.864 71.2615 25.1742 71.2615 19.5047C71.2615 13.8351 75.4912 10.2353 80.6208 10.2353C85.7505 10.2353 90.0702 13.925 90.0702 19.5047C90.0702 25.0843 85.7505 28.864 80.6208 28.864ZM80.6208 23.6444C82.8707 23.6444 84.7606 22.0245 84.7606 19.5047C84.7606 17.0748 82.8707 15.4549 80.6208 15.4549C79.5409 15.4549 78.461 15.9049 77.7411 16.6249C76.9311 17.4348 76.5711 18.4247 76.5711 19.5047C76.5711 22.0245 78.461 23.6444 80.6208 23.6444ZM61.6322 15.4549C63.2521 15.4549 64.602 16.7149 64.602 19.0547V28.594H69.9116V18.3347C69.9116 12.9351 67.2118 10.2353 62.8921 10.2353C61.6322 10.2353 59.2024 10.5953 57.4925 13.3851C56.5026 11.3152 54.5227 10.2353 51.6429 10.2353C49.663 10.2353 47.7732 11.4052 46.8732 13.2051V10.5953H41.4736V28.504H46.8732V19.0547C46.8732 16.3549 48.4031 15.3649 50.023 15.3649C51.5529 15.3649 52.9928 16.5349 52.9928 18.7847V28.414H58.3924V19.0547C58.4824 16.4449 59.9223 15.4549 61.6322 15.4549Z" fill="#333333"/>
<path d="M167.191 27.6045C167.191 28.2344 167.731 28.6844 168.361 28.6844C168.991 28.6844 169.531 28.2344 169.531 27.6045C169.531 26.9745 168.991 26.4346 168.361 26.4346C167.731 26.4346 167.191 26.9745 167.191 27.6045Z" fill="#333333"/>
</svg>
